<?xml version="1.0" encoding="utf-8"?>
<!-- Generator: Adobe Illustrator 24.1.2, SVG Export Plug-In . SVG Version: 6.00 Build 0)  -->
<svg version="1.1" id="Capa_1" xmlns="http://www.w3.org/2000/svg" xmlns:xlink="http://www.w3.org/1999/xlink" x="0px" y="0px"
	 viewBox="0 0 612 792" style="enable-background:new 0 0 612 792;" xml:space="preserve">
<style type="text/css">
	.st0{fill:#F7EDED;stroke:#000000;stroke-width:1.9999;stroke-miterlimit:9.9997;}
	.st1{fill:none;}
	.st2{font-family:'ArialMT';}
	.st3{font-size:12px;}
</style>
<rect x="101.16" y="295.75" transform="matrix(0.9775 -0.2108 0.2108 0.9775 -77.5018 49.56)" class="st0" width="185.08" height="185.08"/>
<rect x="307.46" y="318.9" transform="matrix(0.9775 -0.2108 0.2108 0.9775 -77.7454 93.5686)" class="st0" width="185.08" height="185.08"/>
<path id="SVGID_x5F_1_x5F_" class="st1" d="M40.64,438.6l225.58-50.13"/>
<text class="st2 st3"> </text>
<path id="SVGID_x5F_2_x5F_" class="st1" d="M235.38,461.73l225.58-50.13"/>
<text class="st2 st3"> </text>
<g>
	<path d="M146.82,409l-1.37-6.72l6.72-1.37l1.37,6.72L146.82,409z"/>
	<path d="M155.04,380.85l6.27-1.28l0.76,3.73c0.55-1.44,1.44-2.7,2.67-3.78c1.22-1.08,2.68-1.79,4.37-2.14
		c2.95-0.6,5.69,0.04,8.22,1.94c2.53,1.89,4.22,4.9,5.06,9.03c0.87,4.24,0.5,7.75-1.09,10.53c-1.59,2.78-3.86,4.46-6.81,5.07
		c-1.4,0.29-2.73,0.27-3.99-0.06c-1.25-0.33-2.65-1.04-4.19-2.14l2.61,12.8l-6.72,1.37L155.04,380.85z M164.2,391.77
		c0.58,2.85,1.58,4.85,2.99,5.98c1.41,1.13,2.93,1.53,4.56,1.2c1.56-0.32,2.73-1.21,3.52-2.67c0.78-1.46,0.88-3.62,0.3-6.48
		c-0.54-2.66-1.48-4.53-2.81-5.6s-2.79-1.45-4.37-1.13c-1.64,0.34-2.88,1.25-3.7,2.74C163.85,387.29,163.69,389.28,164.2,391.77z"/>
	<path d="M213.65,395.35l-6.24,1.28l-0.76-3.73c-0.74,1.66-1.74,2.99-3.01,3.99c-1.27,1-2.62,1.64-4.05,1.94
		c-2.92,0.6-5.66-0.07-8.22-2c-2.56-1.93-4.27-5-5.13-9.21c-0.88-4.31-0.53-7.79,1.03-10.44c1.57-2.65,3.9-4.3,6.99-4.93
		c2.84-0.58,5.54,0.1,8.09,2.04l-2.58-12.63l6.72-1.37L213.65,395.35z M193.01,385.76c0.55,2.71,1.33,4.6,2.33,5.66
		c1.44,1.53,3.14,2.1,5.08,1.7c1.55-0.32,2.73-1.24,3.54-2.78c0.82-1.54,0.96-3.61,0.42-6.23c-0.6-2.92-1.55-4.91-2.87-5.98
		s-2.79-1.44-4.44-1.1c-1.59,0.33-2.8,1.23-3.62,2.72C192.65,381.24,192.49,383.24,193.01,385.76z"/>
	<path d="M212.13,369.2l3.73-0.76l-0.39-1.91c-0.44-2.14-0.53-3.78-0.29-4.92c0.24-1.15,0.9-2.17,1.99-3.08
		c1.08-0.91,2.56-1.56,4.43-1.94c1.91-0.39,3.85-0.49,5.8-0.29l0.05,4.87c-1.12-0.04-2.18,0.05-3.16,0.25
		c-0.97,0.2-1.62,0.57-1.95,1.11c-0.33,0.54-0.36,1.46-0.1,2.75l0.37,1.79l5.02-1.03l1.08,5.29l-5.02,1.03l4.11,20.12l-6.72,1.37
		l-4.11-20.12l-3.73,0.76L212.13,369.2z"/>
</g>
<g>
	<path d="M360.55,438.58l-1.37-6.72l6.72-1.37l1.37,6.72L360.55,438.58z"/>
	<path d="M368.1,406.99l-1.27-6.22l6.72-1.37l1.27,6.22L368.1,406.99z M375.53,409.06l5.03,24.61c0.66,3.24,0.92,5.57,0.77,6.98
		c-0.15,1.42-0.75,2.62-1.8,3.62c-1.05,1-2.51,1.68-4.38,2.06c-0.67,0.14-1.4,0.22-2.2,0.26s-1.67,0.03-2.61-0.03v-5.98
		c0.33,0,0.64-0.01,0.93-0.03c0.29-0.02,0.55-0.05,0.79-0.1c0.69-0.14,1.22-0.4,1.6-0.79c0.38-0.38,0.6-0.8,0.66-1.24
		c0.06-0.44-0.12-1.7-0.55-3.78l-4.95-24.23L375.53,409.06z"/>
	<path d="M382.37,407.67l6.27-1.28l0.76,3.73c0.55-1.44,1.44-2.7,2.67-3.78c1.22-1.08,2.68-1.79,4.37-2.14
		c2.95-0.6,5.69,0.04,8.22,1.94s4.22,4.9,5.06,9.03c0.87,4.24,0.5,7.75-1.09,10.53c-1.59,2.78-3.87,4.46-6.82,5.07
		c-1.4,0.29-2.73,0.27-3.99-0.06s-2.65-1.04-4.19-2.14l2.61,12.8l-6.72,1.37L382.37,407.67z M391.53,418.58
		c0.58,2.86,1.58,4.85,2.99,5.98c1.41,1.13,2.93,1.53,4.56,1.2c1.56-0.32,2.73-1.21,3.52-2.67c0.78-1.46,0.88-3.62,0.3-6.48
		c-0.54-2.66-1.48-4.53-2.81-5.61c-1.33-1.07-2.79-1.45-4.37-1.13c-1.64,0.34-2.88,1.25-3.7,2.74S391.02,416.09,391.53,418.58z"/>
	<path d="M417.4,428.72l7.87-0.63c0.31,0.87,0.73,1.42,1.26,1.66c0.74,0.35,1.79,0.38,3.16,0.1c1.75-0.36,3.02-0.89,3.79-1.59
		c0.52-0.47,0.85-1.13,0.99-1.97c0.09-0.6-0.01-1.65-0.32-3.15l-0.76-3.71c-1.45,3.15-3.71,5.04-6.77,5.67
		c-3.41,0.7-6.41-0.19-8.99-2.67c-2.03-1.96-3.39-4.64-4.08-8.04c-0.87-4.26-0.51-7.72,1.08-10.39c1.59-2.67,3.91-4.31,6.95-4.93
		c3.14-0.64,6.01,0.21,8.62,2.55l-0.73-3.56l6.29-1.28l4.65,22.8c0.61,3,0.82,5.29,0.63,6.87c-0.19,1.58-0.65,2.89-1.37,3.92
		c-0.72,1.03-1.78,1.93-3.17,2.71c-1.39,0.78-3.23,1.41-5.51,1.87c-4.31,0.88-7.51,0.76-9.61-0.34s-3.39-2.79-3.85-5.06
		C417.5,429.32,417.45,429.04,417.4,428.72z M420.36,412.59c0.55,2.7,1.48,4.56,2.78,5.6c1.3,1.04,2.72,1.4,4.25,1.09
		c1.64-0.34,2.9-1.26,3.77-2.78s1.05-3.53,0.53-6.05c-0.54-2.63-1.48-4.47-2.82-5.53c-1.35-1.05-2.85-1.41-4.51-1.07
		c-1.61,0.33-2.81,1.23-3.6,2.69C419.97,408.01,419.84,410.03,420.36,412.59z"/>
</g>
</svg>
