<?xml version="1.0" encoding="utf-8"?>
<!-- Generator: Adobe Illustrator 24.1.2, SVG Export Plug-In . SVG Version: 6.00 Build 0)  -->
<svg version="1.1" xmlns="http://www.w3.org/2000/svg" xmlns:xlink="http://www.w3.org/1999/xlink" x="0px" y="0px"
	 viewBox="0 0 612 792" style="enable-background:new 0 0 612 792;" xml:space="preserve">
<style type="text/css">
	.st0{fill:#F7EDED;stroke:#000000;stroke-width:2;stroke-miterlimit:10;}
	.st1{fill:none;}
	.st2{fill:#EDEDED;stroke:#000000;stroke-width:2;stroke-miterlimit:10;}
	.st3{fill:#F9F7F7;stroke:#000000;stroke-width:2;stroke-miterlimit:10;}
</style>
<g id="Capa_1">
	
		<rect x="101.18" y="295.75" transform="matrix(0.9775 -0.2108 0.2108 0.9775 -77.5134 49.5729)" class="st0" width="185.09" height="185.09"/>
	<path id="SVGID_x5F_1_x5F_" class="st1" d="M40.64,438.6l225.58-50.13"/>
	<text>	<textPath  xlink:href="#SVGID_x5F_1_x5F_" startOffset="45.7031%">
<tspan  style="font-family:'Arial-BoldMT'; font-size:70.1802px;">.jpg</tspan>	</textPath>
</text>
</g>
<g id="impresiones">
	
		<rect x="90.84" y="198.8" transform="matrix(0.9775 -0.2108 0.2108 0.9775 -67.6407 46.316)" class="st2" width="185.09" height="283.15"/>
	
		<rect x="118.29" y="203.02" transform="matrix(0.9775 -0.2108 0.2108 0.9775 -70.1445 52.4351)" class="st2" width="185.09" height="304.3"/>
	
		<rect x="145.73" y="217.83" transform="matrix(0.9775 -0.2108 0.2108 0.9775 -72.6482 58.5543)" class="st2" width="185.09" height="304.3"/>
	
		<rect x="173.18" y="232.63" transform="matrix(0.9775 -0.2108 0.2108 0.9775 -75.152 64.6734)" class="st2" width="185.09" height="304.3"/>
	
		<rect x="213.45" y="261.39" transform="matrix(0.9775 -0.2108 0.2108 0.9775 -80.3099 73.8122)" class="st2" width="185.09" height="304.3"/>
	
		<rect x="239.45" y="278.92" transform="matrix(0.9775 -0.2108 0.2108 0.9775 -83.4222 79.6881)" class="st2" width="185.09" height="304.3"/>
	
		<rect x="275.21" y="303.52" transform="matrix(0.9775 -0.2108 0.2108 0.9775 -87.8046 87.7787)" class="st2" width="185.09" height="304.3"/>
	
		<rect x="302.89" y="321.18" transform="matrix(0.9775 -0.2108 0.2108 0.9775 -90.9066 94.0127)" class="st3" width="185.09" height="304.3"/>
	<line class="st0" x1="302.99" y1="384.34" x2="432.72" y2="358.81"/>
	<line class="st0" x1="307.57" y1="406.7" x2="437.3" y2="381.17"/>
	<line class="st0" x1="313.92" y1="425.14" x2="443.65" y2="399.61"/>
	<line class="st0" x1="320.72" y1="442.64" x2="450.45" y2="417.11"/>
	<line class="st0" x1="328.43" y1="471.24" x2="458.16" y2="445.72"/>
	<line class="st0" x1="336.06" y1="492.08" x2="465.8" y2="466.55"/>
	<line class="st0" x1="337.31" y1="517.35" x2="467.04" y2="491.82"/>
	<line class="st0" x1="344.31" y1="535.65" x2="474.04" y2="510.12"/>
</g>
</svg>
